<?xml version="1.0" encoding="UTF-8"?>
<svg id="Layer_1" data-name="Layer 1" xmlns="http://www.w3.org/2000/svg" viewBox="0 0 300 300">
  <defs>
    <style>
      .cls-1 {
        stroke-width: 0px;
      }
    </style>
  </defs>
  <path class="cls-1" d="m279.93,157.84c-8.31,3.87-16.63,7.71-24.93,11.62-5.63,2.65-11.21,5.39-16.8,8.12-.62.3-1.14.78-1.71,1.17.03.21.07.42.1.63,1.07.11,2.13.31,3.2.3,3.76-.04,7.51-.19,11.27-.18.64,0,1.27.63,1.91.98-.41.61-.68,1.46-1.26,1.8-9.83,5.74-19.7,11.4-29.55,17.1-6.6,3.82-13.13,7.78-19.79,11.49-2.31,1.29-3.65,3.08-4.32,5.49-3.17,11.49-6.32,22.98-9.45,34.48-1.57,5.74-2.96,11.54-4.71,17.22-.42,1.38-1.74,2.78-3.03,3.54-6.9,4.11-13.95,7.97-20.89,12-3.93,2.28-7.77,4.72-11.66,7.06-.8.48-1.65.9-2.52,1.23-1.3.49-2.53.62-3.65-.6-1.03-1.12-2.3-2.03-3.41-3.09-.91-.87-1.1-1.99.03-2.71,4.74-3.04,7.52-7.73,10.53-12.24,2.2-3.29,4.35-6.61,6.61-9.85.9-1.29,1.21-2.44.36-3.87-1.04-1.75-1.89-3.6-4.4-3.53-3.35.09-6.71.12-10.06.16-2.08.03-4.16-2.01-4.16-4.03,0-21.26.04-42.51-.09-63.77-.01-1.72-.86-3.62-1.82-5.12-8.62-13.46-17.31-26.86-26.09-40.21-.8-1.21-2.21-2.08-3.46-2.93-9.27-6.38-18.56-12.72-27.85-19.07-5.27-3.6-10.54-7.2-15.82-10.8-.36-.25-.75-.47-1.58-.99,11.2,29.93,22.22,59.38,33.31,89.01-2.28.02-63.94-50.78-74.16-60.63,10.06-17.99,20.12-35.98,30.19-53.98-.1-.1-.2-.19-.31-.29-4.53,3.08-9.05,6.17-13.95,9.5.56-3.24,1.03-6.03,1.53-8.81,1.28-7.16,2.58-14.31,3.86-21.46,1.27-7.09,2.51-14.19,3.78-21.28,1.28-7.16,2.56-14.31,3.89-21.46.75-4.04,1.59-8.06,2.39-12.09.13,0,.27,0,.4,0,7.06,12.53,14.07,25.09,21.2,37.58,6.97,12.21,13.65,24.6,21.2,36.45,11.34,17.8,23.28,35.22,35.06,52.74,1.61,2.4,2.87,4.8,2.93,7.72.02.85-.19,1.72-.08,2.56.53,4.05,1.11,8.09,1.7,12.13.99,6.74,1.99,13.49,3.02,20.23.3,1.95.69,3.88,1.04,5.82.6-1.35.83-2.65.97-3.95.58-5.16.97-10.34,1.73-15.47,1.2-8.07,2.61-16.12,4-24.16.18-1.02.65-2.05,1.2-2.94,3.17-5.12,6.39-10.21,9.63-15.29,4.86-7.62,9.76-15.22,14.63-22.85,3.96-6.2,7.94-12.39,11.81-18.65,1.47-2.38,1.43-2.49,3.74-.93,23.21,15.73,46.41,31.46,69.61,47.21,2.93,1.99,5.82,4.03,8.67,6.12.45.33.6,1.05.89,1.59-.55.16-1.09.34-1.64.46-.25.05-.54,0-.8-.03-6.04-.87-12.07-1.75-18.1-2.6-1.77-.25-3.56-.43-5.59-.67,1.18,2.82,3.57,3.22,5.43,4.32,7.05,4.13,14.14,8.2,21.19,12.34,4.9,2.88,9.76,5.84,14.63,8.76v1.61Zm-106.78-21.93c-1.51,3.91-1.15,7.32.14,10.69.1.27-.3.8-.57,1.12-.62.72-1.45,1.3-1.95,2.1-2.84,4.52-5.62,9.08-8.4,13.64-1.89,3.1-3.73,6.22-5.59,9.33.16.13.33.25.49.38,5-4.37,10.01-8.74,15.3-13.37.25,4.26.46,7.9.67,11.54.14,0,.27.02.41.03.23-3.67.46-7.33.71-11.16.82,0,1.4-.03,1.99,0,2.87.15,5.75.25,8.62.49,1.38.12,2.25-.42,3.05-1.45,2.04-2.64,4.14-5.24,6.23-7.85,2.82-3.52,5.66-7.03,8.81-10.95-9.55,2.27-18.55,4.42-27.97,6.66.44-6.82.85-13.32,1.3-20.23-3.34,3.55-6.3,6.71-9.68,10.3,2.27-.45,3.98-.78,6.44-1.27Z"/>
  <path class="cls-1" d="m119.14,173.48c-3.86-3.4-7.97-6.56-11.5-10.27-3.07-3.22-6.47-3.37-10.39-2.85-2.38.32-4.81.26-7.22.3-.39,0-.91-.28-1.17-.59-5.04-6.24-10.04-12.51-15.05-18.77-.11-.14-.1-.37-.2-.76,2.24.53,4.35,1.02,6.46,1.52,6.94,1.65,13.87,3.32,20.81,4.93,2.08.48,3.67,1.26,4.85,3.3,4.25,7.31,8.73,14.49,13.12,21.72.23.38.41.79.61,1.19-.11.1-.22.19-.34.29Z"/>
  <path class="cls-1" d="m239.48,92.94c-15.25-10.49-29.96-20.6-44.91-30.89,9.66-17.97,19.27-35.87,28.89-53.77.23.01.46.03.68.04,5.08,28.03,10.16,56.05,15.34,84.62Z"/>
  <path class="cls-1" d="m112.86,70.05c8.39-2.68,16.44-5.26,24.51-7.8.48-.15,1.09-.16,1.56,0,8.04,2.54,16.07,5.11,24.44,7.79-8.42,15.38-16.78,30.63-25.26,46.12-8.46-15.44-16.78-30.64-25.25-46.1Z"/>
</svg>