<svg width="24" height="24" viewBox="0 0 24 24" fill="none" xmlns="http://www.w3.org/2000/svg">
<path d="M6.92308 18H17.0769C17.5846 18 18 17.5875 18 17.0833C18 16.5792 17.5846 16.1667 17.0769 16.1667H6.92308C6.41538 16.1667 6 16.5792 6 17.0833C6 17.5875 6.41538 18 6.92308 18ZM6.92308 13.4167H14.3077C14.8154 13.4167 15.2308 13.0042 15.2308 12.5C15.2308 11.9958 14.8154 11.5833 14.3077 11.5833H6.92308C6.41538 11.5833 6 11.9958 6 12.5C6 13.0042 6.41538 13.4167 6.92308 13.4167ZM6 7.91667C6 8.42083 6.41538 8.83333 6.92308 8.83333H17.0769C17.5846 8.83333 18 8.42083 18 7.91667C18 7.4125 17.5846 7 17.0769 7H6.92308C6.41538 7 6 7.4125 6 7.91667Z" fill="white"/>
</svg>
