<svg width="24" height="24" viewBox="0 0 24 24" fill="none" xmlns="http://www.w3.org/2000/svg">
<path fill-rule="evenodd" clip-rule="evenodd" d="M7.54151 5.0432C7.54151 5.09108 7.38526 6.02901 7.19429 7.12747C6.77605 9.53338 6.77866 9.43724 7.13595 9.29229C7.33856 9.2101 7.21234 9.58182 6.71234 10.5388L6 11.9028L7.7377 13.4319C8.69344 14.2727 9.50994 14.9242 9.5523 14.8795C9.59467 14.8347 9.42644 14.2281 9.17852 13.5315L8.72764 12.2648L9.14414 12.6776C9.37314 12.9046 9.72158 13.0904 9.91863 13.0904C10.1157 13.0904 10.3756 13.2163 10.4964 13.37C10.8785 13.8566 10.8942 13.5023 10.5153 12.9401C10.2731 12.5809 9.90127 12.335 9.39605 12.2006C8.73736 12.0253 8.60333 11.902 8.36045 11.2485C8.03926 10.3847 8.01999 10.3832 9.39432 11.3322C10.1212 11.8342 10.64 12.3849 11.115 13.1588C11.7725 14.2302 11.798 14.3311 11.8818 16.1937C11.9641 18.0206 11.9895 18.1257 12.3695 18.22C12.8827 18.3473 12.8727 18.5471 12.3157 19.2849C11.6516 20.1643 12.1463 20.247 13.3209 19.453C14.2531 18.8229 14.2692 18.7967 14.5982 17.3746L14.9315 15.9343L16.2673 15.1086C17.0019 14.6545 17.6048 14.227 17.6071 14.1588C17.6094 14.0905 17.4745 14.0054 17.3073 13.9696C17.1213 13.9298 17.391 13.7335 18.0017 13.4638C18.5507 13.2212 19 12.9686 19 12.9023C19 12.8361 18.5899 12.544 18.0885 12.2532C17.1883 11.7312 17.1833 11.7235 17.6797 11.6277C18.1552 11.5362 18.0847 11.4606 16.3776 10.231C15.385 9.51595 14.4824 8.87581 14.3716 8.80847C14.2466 8.73233 13.8051 9.2978 13.2051 10.3027C12.4234 11.6122 12.2171 12.1253 12.1195 13.0025C11.9911 14.157 11.7443 13.9836 11.7204 12.722C11.7115 12.2508 11.4143 11.612 10.611 10.3368C10.0073 9.37908 9.09935 7.81092 8.59292 6.85226C7.66652 5.09879 7.54151 4.88357 7.54151 5.0432ZM15.4539 6.45779C15.1126 7.17426 14.8333 7.79184 14.8333 7.83018C14.8333 7.86853 15.302 8.2474 15.875 8.67215C16.4479 9.09689 16.9166 9.34055 16.9166 9.21377C16.9166 8.68389 16.3317 5.46335 16.2086 5.31566C16.135 5.22741 15.7954 5.7415 15.4539 6.45779ZM11.0534 8.13402L10.6589 8.31125L11.2117 9.37064C11.5159 9.95336 11.8107 10.488 11.8669 10.5586C11.9232 10.6295 12.2376 10.1565 12.5655 9.50751C12.8937 8.85856 13.1122 8.27493 13.0515 8.21053C12.8562 8.00412 11.4612 7.95072 11.0534 8.13402ZM14.4378 12.245L15.0597 12.1217L14.7295 12.6003C14.5341 12.8833 14.2274 13.0812 13.9789 13.0847C13.7477 13.0878 13.407 13.2348 13.2218 13.4115C12.9194 13.6999 12.9237 13.6634 13.2638 13.0532C13.4721 12.6796 13.6281 12.2255 13.6103 12.0441C13.5548 11.4773 13.6662 11.3208 13.7428 11.8578C13.811 12.3356 13.8557 12.3604 14.4378 12.245Z" fill="white"/>
</svg>
